<svg width="71" height="44" viewBox="0 0 71 44" fill="none" xmlns="http://www.w3.org/2000/svg">
<path d="M18.4066 12V3.27273H24.364V4.9858H20.516V6.77557H23.9847V8.4929H20.516V12H18.4066ZM25.4261 12V3.27273H29.0312C29.6847 3.27273 30.2486 3.39062 30.723 3.62642C31.2003 3.85937 31.5682 4.1946 31.8267 4.6321C32.0852 5.06676 32.2145 5.58239 32.2145 6.17898C32.2145 6.78409 32.0824 7.2983 31.8182 7.72159C31.554 8.14205 31.179 8.46307 30.6932 8.68466C30.2074 8.90341 29.6321 9.01278 28.9673 9.01278H26.6875V7.35085H28.5753C28.8935 7.35085 29.1591 7.30966 29.3722 7.22727C29.5881 7.14205 29.7514 7.0142 29.8622 6.84375C29.973 6.67045 30.0284 6.44886 30.0284 6.17898C30.0284 5.90909 29.973 5.68608 29.8622 5.50994C29.7514 5.33097 29.5881 5.19744 29.3722 5.10938C29.1563 5.01847 28.8906 4.97301 28.5753 4.97301H27.5355V12H25.4261ZM30.3395 8.01136L32.5128 12H30.2116L28.081 8.01136H30.3395ZM41.6087 7.63636C41.6087 8.59659 41.424 9.41051 41.0547 10.0781C40.6854 10.7457 40.1854 11.2528 39.5547 11.5994C38.9268 11.946 38.2223 12.1193 37.4411 12.1193C36.657 12.1193 35.951 11.9446 35.3232 11.5952C34.6953 11.2457 34.1967 10.7386 33.8274 10.0739C33.4609 9.40625 33.2777 8.59375 33.2777 7.63636C33.2777 6.67614 33.4609 5.86222 33.8274 5.1946C34.1967 4.52699 34.6953 4.01989 35.3232 3.6733C35.951 3.3267 36.657 3.15341 37.4411 3.15341C38.2223 3.15341 38.9268 3.3267 39.5547 3.6733C40.1854 4.01989 40.6854 4.52699 41.0547 5.1946C41.424 5.86222 41.6087 6.67614 41.6087 7.63636ZM39.4524 7.63636C39.4524 7.06818 39.3714 6.58807 39.2095 6.19602C39.0504 5.80398 38.8203 5.5071 38.5192 5.3054C38.2209 5.10369 37.8615 5.00284 37.4411 5.00284C37.0234 5.00284 36.6641 5.10369 36.3629 5.3054C36.0618 5.5071 35.8303 5.80398 35.6683 6.19602C35.5092 6.58807 35.4297 7.06818 35.4297 7.63636C35.4297 8.20455 35.5092 8.68466 35.6683 9.0767C35.8303 9.46875 36.0618 9.76562 36.3629 9.96733C36.6641 10.169 37.0234 10.2699 37.4411 10.2699C37.8615 10.2699 38.2209 10.169 38.5192 9.96733C38.8203 9.76562 39.0504 9.46875 39.2095 9.0767C39.3714 8.68466 39.4524 8.20455 39.4524 7.63636ZM42.8402 3.27273H45.4524L47.6683 8.67614H47.7706L49.9865 3.27273H52.5987V12H50.5447V6.6392H50.4723L48.3757 11.9446H47.0632L44.9666 6.60938H44.8942V12H42.8402V3.27273ZM1.86559 27V18.2727H3.97496V21.7756H7.41388V18.2727H9.519V27H7.41388V23.4929H3.97496V27H1.86559ZM19.0794 22.6364C19.0794 23.5966 18.8947 24.4105 18.5254 25.0781C18.1561 25.7457 17.6561 26.2528 17.0254 26.5994C16.3975 26.946 15.693 27.1193 14.9118 27.1193C14.1277 27.1193 13.4217 26.9446 12.7939 26.5952C12.166 26.2457 11.6674 25.7386 11.2981 25.0739C10.9316 24.4062 10.7484 23.5937 10.7484 22.6364C10.7484 21.6761 10.9316 20.8622 11.2981 20.1946C11.6674 19.527 12.166 19.0199 12.7939 18.6733C13.4217 18.3267 14.1277 18.1534 14.9118 18.1534C15.693 18.1534 16.3975 18.3267 17.0254 18.6733C17.6561 19.0199 18.1561 19.527 18.5254 20.1946C18.8947 20.8622 19.0794 21.6761 19.0794 22.6364ZM16.9231 22.6364C16.9231 22.0682 16.8422 21.5881 16.6802 21.196C16.5211 20.804 16.291 20.5071 15.9899 20.3054C15.6916 20.1037 15.3322 20.0028 14.9118 20.0028C14.4941 20.0028 14.1348 20.1037 13.8336 20.3054C13.5325 20.5071 13.301 20.804 13.139 21.196C12.9799 21.5881 12.9004 22.0682 12.9004 22.6364C12.9004 23.2045 12.9799 23.6847 13.139 24.0767C13.301 24.4687 13.5325 24.7656 13.8336 24.9673C14.1348 25.169 14.4941 25.2699 14.9118 25.2699C15.3322 25.2699 15.6916 25.169 15.9899 24.9673C16.291 24.7656 16.5211 24.4687 16.6802 24.0767C16.8422 23.6847 16.9231 23.2045 16.9231 22.6364ZM27.7385 18.2727V27H25.9487L22.4757 21.9631H22.4203V27H20.3109V18.2727H22.1262L25.5609 23.3011H25.6333V18.2727H27.7385ZM39.3773 27V18.2727H41.4867V25.2869H45.1174V27H39.3773ZM51.4892 18.2727H53.5943V23.902C53.5943 24.5526 53.4395 25.1193 53.1298 25.6023C52.8201 26.0824 52.3883 26.4545 51.8343 26.7188C51.2804 26.9801 50.6369 27.1108 49.9039 27.1108C49.1625 27.1108 48.5147 26.9801 47.9608 26.7188C47.4068 26.4545 46.9764 26.0824 46.6696 25.6023C46.3627 25.1193 46.2093 24.5526 46.2093 23.902V18.2727H48.3187V23.7188C48.3187 24.0199 48.3841 24.2884 48.5147 24.5241C48.6483 24.7599 48.8343 24.9446 49.073 25.0781C49.3116 25.2116 49.5886 25.2784 49.9039 25.2784C50.2193 25.2784 50.4949 25.2116 50.7306 25.0781C50.9693 24.9446 51.1554 24.7599 51.2889 24.5241C51.4224 24.2884 51.4892 24.0199 51.4892 23.7188V18.2727ZM54.9164 27V18.2727H57.0257V25.2869H60.6564V27H54.9164ZM67.0282 18.2727H69.1333V23.902C69.1333 24.5526 68.9785 25.1193 68.6689 25.6023C68.3592 26.0824 67.9274 26.4545 67.3734 26.7188C66.8194 26.9801 66.176 27.1108 65.443 27.1108C64.7015 27.1108 64.0538 26.9801 63.4998 26.7188C62.9458 26.4545 62.5154 26.0824 62.2086 25.6023C61.9018 25.1193 61.7484 24.5526 61.7484 23.902V18.2727H63.8578V23.7188C63.8578 24.0199 63.9231 24.2884 64.0538 24.5241C64.1873 24.7599 64.3734 24.9446 64.612 25.0781C64.8507 25.2116 65.1277 25.2784 65.443 25.2784C65.7583 25.2784 66.0339 25.2116 66.2697 25.0781C66.5083 24.9446 66.6944 24.7599 66.8279 24.5241C66.9615 24.2884 67.0282 24.0199 67.0282 23.7188V18.2727ZM13.5433 42V33.2727H15.6527V36.7756H19.0916V33.2727H21.1967V42H19.0916V38.4929H15.6527V42H13.5433ZM24.4077 42H22.1406L25.0852 33.2727H27.8935L30.8381 42H28.571L26.5213 35.4716H26.4531L24.4077 42ZM24.1051 38.5653H28.8438V40.1676H24.1051V38.5653ZM32.9208 42L30.381 33.2727H32.712L34.0288 38.9915H34.1012L35.6055 33.2727H37.506L39.0103 39.0043H39.0827L40.4038 33.2727H42.7305L40.195 42H38.1623L36.5898 36.7074H36.5217L34.9492 42H32.9208ZM44.5405 42H42.2734L45.218 33.2727H48.0263L50.9709 42H48.7038L46.6541 35.4716H46.5859L44.5405 42ZM44.2379 38.5653H48.9766V40.1676H44.2379V38.5653ZM54.0199 33.2727V42H51.9105V33.2727H54.0199ZM57.4535 33.2727V42H55.3441V33.2727H57.4535Z" fill="black"/>
<g clip-path="url(#clip0_132_238)">
<path d="M31.3387 19.0438C31.3045 18.9511 31.3052 18.8475 31.3406 18.7554C31.376 18.6632 31.4432 18.59 31.5277 18.5516C31.5694 18.5326 31.6142 18.5228 31.6594 18.523C31.7046 18.5231 31.7493 18.533 31.7909 18.5522C31.8326 18.5714 31.8702 18.5995 31.9018 18.6348C31.9333 18.6701 31.9581 18.712 31.9746 18.7579L32.3055 19.6204C32.3399 19.7124 32.3398 19.8156 32.3053 19.9076C32.2707 19.9997 32.2045 20.0732 32.1207 20.1125C32.0783 20.1309 32.0331 20.1404 31.9875 20.1407C31.9199 20.1397 31.854 20.1175 31.7976 20.0768C31.7412 20.0361 31.6967 19.9785 31.6695 19.911L31.3387 19.0438ZM28.9238 22.086L29.7145 22.4469C29.7569 22.4653 29.802 22.4748 29.8477 22.475C29.9275 22.4757 30.0051 22.446 30.067 22.3911C30.129 22.3362 30.1715 22.2594 30.1873 22.1741C30.203 22.0887 30.191 22 30.1534 21.9232C30.1157 21.8464 30.0547 21.7863 29.9809 21.7532L29.1859 21.3922C29.101 21.3549 29.006 21.3557 28.9215 21.3943C28.8371 21.4329 28.77 21.5063 28.7348 21.5985C28.7173 21.644 28.7084 21.6928 28.7085 21.7421C28.7086 21.7914 28.7177 21.8402 28.7353 21.8856C28.7529 21.931 28.7787 21.9721 28.8111 22.0065C28.8434 22.0409 28.8818 22.068 28.9238 22.086ZM37.1523 22.475C37.198 22.4748 37.2431 22.4653 37.2855 22.4469L38.0762 22.086C38.1182 22.068 38.1566 22.0409 38.1889 22.0065C38.2213 21.9721 38.2471 21.931 38.2647 21.8856C38.2823 21.8402 38.2914 21.7914 38.2915 21.7421C38.2916 21.6928 38.2827 21.644 38.2652 21.5985C38.23 21.5063 38.1629 21.4329 38.0785 21.3943C37.994 21.3557 37.899 21.3549 37.8141 21.3922L37.0191 21.7532C36.9453 21.7863 36.8843 21.8464 36.8466 21.9232C36.809 22 36.797 22.0887 36.8127 22.1741C36.8285 22.2594 36.871 22.3362 36.933 22.3911C36.9949 22.446 37.0725 22.4757 37.1523 22.475ZM34.8793 20.1125C34.9217 20.1309 34.9669 20.1404 35.0125 20.1407C35.0801 20.1397 35.146 20.1175 35.2024 20.0768C35.2588 20.0361 35.3033 19.9785 35.3305 19.911L35.6613 19.0438C35.6955 18.9511 35.6948 18.8475 35.6594 18.7554C35.624 18.6632 35.5568 18.59 35.4723 18.5516C35.4306 18.5326 35.3858 18.5228 35.3406 18.523C35.2954 18.5231 35.2507 18.533 35.2091 18.5522C35.1674 18.5714 35.1298 18.5995 35.0982 18.6348C35.0667 18.6701 35.0419 18.712 35.0254 18.7579L34.6945 19.6204C34.6601 19.7124 34.6602 19.8156 34.6947 19.9076C34.7293 19.9997 34.7955 20.0732 34.8793 20.1125ZM38.3125 24.125H36.4004C36.4141 24.0006 36.4213 23.8754 36.4219 23.75C36.4219 22.9047 36.114 22.0939 35.5661 21.4961C35.0181 20.8984 34.2749 20.5625 33.5 20.5625C32.7251 20.5625 31.9819 20.8984 31.4339 21.4961C30.886 22.0939 30.5781 22.9047 30.5781 23.75C30.5787 23.8754 30.5859 24.0006 30.5996 24.125H28.6875C28.5963 24.125 28.5089 24.1645 28.4444 24.2349C28.38 24.3052 28.3438 24.4006 28.3438 24.5C28.3438 24.5995 28.38 24.6949 28.4444 24.7652C28.5089 24.8355 28.5963 24.875 28.6875 24.875H38.3125C38.4037 24.875 38.4911 24.8355 38.5556 24.7652C38.62 24.6949 38.6562 24.5995 38.6562 24.5C38.6562 24.4006 38.62 24.3052 38.5556 24.2349C38.4911 24.1645 38.4037 24.125 38.3125 24.125ZM36.9375 26H30.0625C29.9713 26 29.8839 26.0396 29.8194 26.1099C29.755 26.1802 29.7188 26.2756 29.7188 26.375C29.7188 26.4745 29.755 26.5699 29.8194 26.6402C29.8839 26.7105 29.9713 26.75 30.0625 26.75H36.9375C37.0287 26.75 37.1161 26.7105 37.1806 26.6402C37.245 26.5699 37.2812 26.4745 37.2812 26.375C37.2812 26.2756 37.245 26.1802 37.1806 26.1099C37.1161 26.0396 37.0287 26 36.9375 26Z" fill="black"/>
</g>
<defs>
<clipPath id="clip0_132_238">
<rect width="11" height="12" fill="white" transform="translate(28 17)"/>
</clipPath>
</defs>
</svg>
