<svg width="1143" height="540" viewBox="0 0 1143 540" fill="none" xmlns="http://www.w3.org/2000/svg">
<path d="M283.695 2.4H394.895V35.4H327.895V59H385.495V90.6H327.895V140H283.695V2.4ZM535.693 44.6C535.693 53 533.426 60.6 528.893 67.4C524.36 74.2 517.76 79.2 509.093 82.4L539.693 140H490.093L465.693 89.8H449.293V140H405.093V2.4H489.293C499.16 2.4 507.56 4.33333 514.493 8.19999C521.56 11.9333 526.826 17.0667 530.293 23.6C533.893 30 535.693 37 535.693 44.6ZM490.693 46.4C490.693 42.8 489.493 39.8 487.093 37.4C484.693 35 481.76 33.8 478.293 33.8H449.293V59.2H478.293C481.76 59.2 484.693 58 487.093 55.6C489.493 53.0667 490.693 50 490.693 46.4ZM613.837 -9.53674e-06C637.57 -9.53674e-06 655.903 6.06666 668.837 18.2C681.77 30.3333 688.237 48 688.237 71.2C688.237 94.4 681.77 112.067 668.837 124.2C655.903 136.333 637.57 142.4 613.837 142.4C590.103 142.4 571.77 136.4 558.837 124.4C546.037 112.267 539.637 94.5333 539.637 71.2C539.637 47.8667 546.037 30.2 558.837 18.2C571.77 6.06666 590.103 -9.53674e-06 613.837 -9.53674e-06ZM613.837 33C604.37 33 597.17 35.8667 592.237 41.6C587.303 47.3333 584.837 55.0667 584.837 64.8V77.6C584.837 87.3333 587.303 95.0667 592.237 100.8C597.17 106.533 604.37 109.4 613.837 109.4C623.303 109.4 630.503 106.533 635.437 100.8C640.503 95.0667 643.037 87.3333 643.037 77.6V64.8C643.037 55.0667 640.503 47.3333 635.437 41.6C630.503 35.8667 623.303 33 613.837 33ZM818.238 140V90.4C818.238 84.2667 818.438 78 818.838 71.6C819.372 65.0667 819.905 59.6 820.438 55.2C820.972 50.8 821.305 48 821.438 46.8H820.638L795.238 140H760.638L735.038 47H734.238C734.372 48.2 734.705 51 735.238 55.4C735.905 59.6667 736.505 65.0667 737.038 71.6C737.572 78 737.838 84.2667 737.838 90.4V140H697.238V2.4H759.638L780.438 81.8H781.238L801.838 2.4H862.038V140H818.238ZM93.1703 340V287.8H44.5703V340H0.370313V202.4H44.5703V252.6H93.1703V202.4H137.37V340H93.1703ZM223.372 200C247.105 200 265.439 206.067 278.372 218.2C291.305 230.333 297.772 248 297.772 271.2C297.772 294.4 291.305 312.067 278.372 324.2C265.439 336.333 247.105 342.4 223.372 342.4C199.639 342.4 181.305 336.4 168.372 324.4C155.572 312.267 149.172 294.533 149.172 271.2C149.172 247.867 155.572 230.2 168.372 218.2C181.305 206.067 199.639 200 223.372 200ZM223.372 233C213.905 233 206.705 235.867 201.772 241.6C196.839 247.333 194.372 255.067 194.372 264.8V277.6C194.372 287.333 196.839 295.067 201.772 300.8C206.705 306.533 213.905 309.4 223.372 309.4C232.839 309.4 240.039 306.533 244.972 300.8C250.039 295.067 252.572 287.333 252.572 277.6V264.8C252.572 255.067 250.039 247.333 244.972 241.6C240.039 235.867 232.839 233 223.372 233ZM407.973 340L350.173 273.2V340H309.573V202.4H348.173L405.973 270.2V202.4H446.573V340H407.973ZM532.575 200C556.308 200 574.642 206.067 587.575 218.2C600.508 230.333 606.975 248 606.975 271.2C606.975 294.4 600.508 312.067 587.575 324.2C574.642 336.333 556.308 342.4 532.575 342.4C508.842 342.4 490.508 336.4 477.575 324.4C464.775 312.267 458.375 294.533 458.375 271.2C458.375 247.867 464.775 230.2 477.575 218.2C490.508 206.067 508.842 200 532.575 200ZM532.575 233C523.108 233 515.908 235.867 510.975 241.6C506.042 247.333 503.575 255.067 503.575 264.8V277.6C503.575 287.333 506.042 295.067 510.975 300.8C515.908 306.533 523.108 309.4 532.575 309.4C542.042 309.4 549.242 306.533 554.175 300.8C559.242 295.067 561.775 287.333 561.775 277.6V264.8C561.775 255.067 559.242 247.333 554.175 241.6C549.242 235.867 542.042 233 532.575 233ZM618.777 202.4H662.977V304.8H733.577V340H618.777V202.4ZM871.902 284.6C871.902 303.4 865.968 317.733 854.102 327.6C842.235 337.467 825.368 342.4 803.502 342.4C781.635 342.4 764.702 337.467 752.702 327.6C740.835 317.733 734.902 303.4 734.902 284.6V202.4H779.102V284C779.102 291.733 781.168 297.933 785.302 302.6C789.435 307.133 795.435 309.4 803.302 309.4C811.168 309.4 817.168 307.067 821.302 302.4C825.568 297.733 827.702 291.6 827.702 284V202.4H871.902V284.6ZM889.503 202.4H933.703V304.8H1004.3V340H889.503V202.4ZM1142.63 284.6C1142.63 303.4 1136.69 317.733 1124.83 327.6C1112.96 337.467 1096.09 342.4 1074.23 342.4C1052.36 342.4 1035.43 337.467 1023.43 327.6C1011.56 317.733 1005.63 303.4 1005.63 284.6V202.4H1049.83V284C1049.83 291.733 1051.89 297.933 1056.03 302.6C1060.16 307.133 1066.16 309.4 1074.03 309.4C1081.89 309.4 1087.89 307.067 1092.03 302.4C1096.29 297.733 1098.43 291.6 1098.43 284V202.4H1142.63V284.6ZM291.62 540V487.8H243.02V540H198.82V402.4H243.02V452.6H291.62V402.4H335.82V540H291.62ZM445.621 540L439.821 520.6H391.621L385.821 540H340.621L390.821 402.4H442.221L492.421 540H445.621ZM400.821 489.8H430.621L416.221 440.8H415.421L400.821 489.8ZM602.048 540L584.248 456.2H583.448L565.648 540H517.048L484.848 402.4H530.848L546.648 480.4H547.448L563.048 402.4H606.648L623.248 480.4H624.048L638.848 402.4H682.848L650.648 540H602.048ZM778.848 540L773.048 520.6H724.848L719.048 540H673.848L724.048 402.4H775.448L825.648 540H778.848ZM734.048 489.8H763.848L749.448 440.8H748.648L734.048 489.8ZM832.312 540V402.4H876.512V540H832.312ZM898.046 540V402.4H942.246V540H898.046Z" fill="black"/>
</svg>
