<svg width="1035" height="340" viewBox="0 0 1035 340" fill="none" xmlns="http://www.w3.org/2000/svg">
<path d="M92.2594 2.4C99.1927 2.4 105.526 3.86666 111.259 6.8C117.126 9.59999 121.726 13.6 125.059 18.8C128.526 24 130.259 29.8 130.259 36.2C130.259 53.1333 122.593 63.8 107.259 68.2V69C124.726 73 133.459 84.4667 133.459 103.4C133.459 110.6 131.659 117 128.059 122.6C124.593 128.067 119.793 132.333 113.659 135.4C107.526 138.467 100.793 140 93.4594 140H0.659375V2.4H92.2594ZM44.8594 56H75.2594C78.1927 56 80.5927 55 82.4594 53C84.4594 50.8667 85.4594 48.2667 85.4594 45.2V43.2C85.4594 40.2667 84.4594 37.8 82.4594 35.8C80.4594 33.6667 78.0594 32.6 75.2594 32.6H44.8594V56ZM44.8594 108H78.4594C81.3927 108 83.7927 107 85.6594 105C87.6594 102.867 88.6594 100.267 88.6594 97.2V95.2C88.6594 92.1333 87.6594 89.6 85.6594 87.6C83.7927 85.4667 81.3927 84.4 78.4594 84.4H44.8594V108ZM245.203 140L239.403 120.6H191.203L185.403 140H140.203L190.403 2.4H241.803L292.003 140H245.203ZM200.403 89.8H230.203L215.803 40.8H215.003L200.403 89.8ZM366.467 -9.53674e-06C384.067 -9.53674e-06 398.534 3.59999 409.867 10.8C421.201 17.8667 427.001 28.4 427.267 42.4V44.8H385.867V44C385.867 40 384.401 36.6667 381.467 34C378.534 31.3333 374.067 30 368.067 30C362.201 30 357.667 30.8667 354.467 32.6C351.401 34.3333 349.867 36.4667 349.867 39C349.867 42.6 352.001 45.2667 356.267 47C360.534 48.7333 367.401 50.5333 376.867 52.4C387.934 54.6667 397.001 57.0667 404.067 59.6C411.267 62 417.534 66 422.867 71.6C428.201 77.2 430.934 84.8 431.067 94.4C431.067 110.667 425.534 122.733 414.467 130.6C403.534 138.467 388.867 142.4 370.467 142.4C349.001 142.4 332.267 138.8 320.267 131.6C308.401 124.4 302.467 111.667 302.467 93.4H344.267C344.267 100.333 346.067 105 349.667 107.4C353.267 109.667 358.867 110.8 366.467 110.8C372.067 110.8 376.667 110.2 380.267 109C384.001 107.8 385.867 105.333 385.867 101.6C385.867 98.2667 383.801 95.8 379.667 94.2C375.667 92.4667 369.067 90.6667 359.867 88.8C348.667 86.4 339.401 83.9333 332.067 81.4C324.734 78.7333 318.334 74.4 312.867 68.4C307.401 62.4 304.667 54.2667 304.667 44C304.667 28.9333 310.467 17.8667 322.067 10.8C333.801 3.59999 348.601 -9.53674e-06 366.467 -9.53674e-06ZM453.003 2.4H572.003V35.4H497.203V54.4H561.203V86H497.203V107H573.403V140H453.003V2.4ZM656.939 2.4C705.072 2.4 729.139 25.3333 729.139 71.2C729.139 117.067 705.072 140 656.939 140H597.339V2.4H656.939ZM641.539 107H656.139C674.672 107 683.939 97.0667 683.939 77.2V65.2C683.939 45.3333 674.672 35.4 656.139 35.4H641.539V107ZM821.605 140V2.4H865.805V140H821.605ZM995.739 140L937.939 73.2V140H897.339V2.4H935.939L993.739 70.2V2.4H1034.34V140H995.739ZM207.62 340V287.8H159.02V340H114.82V202.4H159.02V252.6H207.62V202.4H251.82V340H207.62ZM373.621 340L367.821 320.6H319.621L313.821 340H268.621L318.821 202.4H370.221L420.421 340H373.621ZM328.821 289.8H358.621L344.221 240.8H343.421L328.821 289.8ZM542.048 340L524.248 256.2H523.448L505.648 340H457.048L424.848 202.4H470.848L486.648 280.4H487.448L503.048 202.4H546.648L563.248 280.4H564.048L578.848 202.4H622.848L590.648 340H542.048ZM730.848 340L725.048 320.6H676.848L671.048 340H625.848L676.048 202.4H727.448L777.648 340H730.848ZM686.048 289.8H715.848L701.448 240.8H700.648L686.048 289.8ZM796.312 340V202.4H840.512V340H796.312ZM874.046 340V202.4H918.246V340H874.046Z" fill="black"/>
</svg>
