<svg width="853" height="65" viewBox="0 0 853 65" fill="none" xmlns="http://www.w3.org/2000/svg">
<path d="M0.800049 63.1L6.00005 55.8V7.8L0.800049 0.5H21L15.8 7.8V55.8L21 63.1H0.800049Z" fill="#004099"/>
<path d="M57.5001 63C51.9001 53.4 35.2001 28.2 35.2001 28.2V63.1H27.8001V17.5L22.6001 10.3H33.8001L55.8001 43.7V10.3H63.3001V63H57.5001Z" fill="#004099"/>
<path d="M91.9 63.1H85.1L69.5 15L66.2 10.4H77.6L89.4 47.7L99.8 15L96.5 10.4H109L91.9 63.1Z" fill="#004099"/>
<path d="M139.6 63.1H113.7V10.3H141L138.2 17.3H122.8V32.7H137.9L135 40H122.9V55.5H142.8L139.6 63.1Z" fill="#004099"/>
<path d="M158.6 64.1999C153.8 64.1999 148.7 63.2 145 61.3L147.4 53.3C152.8 58.5 167.8 58.4999 167.8 50.0999C167.8 38.8999 145.2 39.9999 145.2 23.0999C145.2 14.5999 151.8 9.19995 162 9.19995C166 9.19995 170.2 9.79995 173.7 11.7L170.9 19.5999C167.1 15.0999 154 14.7 154 22.2C154 32 176.5 32.9999 176.5 47.6999C176.5 57.0999 170.3 64.1999 158.6 64.1999Z" fill="#004099"/>
<path d="M198.9 17.3V63.1H189.9V17.3H176.1L178.2 10.3H210.1L212.5 17.3H198.9Z" fill="#004099"/>
<path d="M231.3 64.2C216.5 64.2 211.7 48.1 211.7 36.1C211.7 24 217.8 9.29999 231.9 9.29999C246.7 9.29999 251.5 25.4 251.5 37.4C251.5 49.5 245.3 64.2 231.3 64.2ZM231.3 16.6C222.2 16.6 221 29.1 221 35.7C221 42.3 222.3 56.8 231.9 56.8C241 56.8 242.2 44.3 242.2 37.7C242.2 31.1 240.8 16.6 231.3 16.6Z" fill="#004099"/>
<path d="M284.5 63.1L268.5 39.5V63.1H259.5V15.8L255.6 10.3H275.2C284 10.3 290.8 16.3 290.8 25.1C290.8 32.9 287.2 39 279.3 40.4L295.9 63H284.5V63.1ZM273.7 17.2H268.5V34.4H274C278.3 34.4 282.1 31.3 282.1 25.6C282 20.8 279 17.2 273.7 17.2Z" fill="#004099"/>
<path d="M295.4 26.8C296.9 24.1 297.6 20.9 297.6 18.2C294.2 17.9 292.4 16 292.4 13.3C292.4 10.1 294.7 8.39996 297.1 8.39996C299.9 8.39996 302.8 10.6 302.8 15.4C302.9 19.6 300.4 24.7 295.4 26.8Z" fill="#004099"/>
<path d="M320.1 64.1999C315.3 64.1999 310.2 63.2 306.5 61.3L308.9 53.3C314.3 58.5 329.3 58.4999 329.3 50.0999C329.3 38.8999 306.7 39.9999 306.7 23.0999C306.7 14.5999 313.3 9.19995 323.5 9.19995C327.5 9.19995 331.7 9.79995 335.2 11.7L332.4 19.5999C328.6 15.0999 315.5 14.7 315.5 22.2C315.5 32 338 32.9999 338 47.6999C337.9 57.0999 331.7 64.1999 320.1 64.1999Z" fill="#004099"/>
<path d="M377.7 62.6H356.6L361.5 55.8V6.89998L356.6 0.0999756H378.1C390.8 0.0999756 396.5 7.49998 396.5 15.5C396.5 23.4 392.5 28.2 387.6 29.7C393.7 31.1 399 37.2 399 44.7C399 55.9 392.1 62.6 377.7 62.6ZM377.9 7.29997H371.1V26.7H376.7C383.1 26.7 387 22.5 387 16C387 11.5 384.1 7.29997 377.9 7.29997ZM379.4 34.3H371.1V55H378.6C385.6 55 389.5 50.7 389.5 44.9C389.4 38.8 385.5 34.3 379.4 34.3Z" fill="#004099"/>
<path d="M423.3 63.4C412.1 63.4 405.6 56.4 405.6 42.9V14.5L402.3 9.79999H414.6V42.8C414.6 51.3 417.7 55.7 423.7 55.7C429.7 55.7 433 51.2 433 43.2V15.5L429 9.79999H441V43.5C441 55.5 435.1 63.4 423.3 63.4Z" fill="#004099"/>
<path d="M459.7 63.6999C454.9 63.6999 449.8 62.7 446.1 60.8L448.5 52.8C453.9 58 468.9 57.9999 468.9 49.5999C468.9 38.3999 446.3 39.4999 446.3 22.5999C446.3 14.0999 452.9 8.69995 463.1 8.69995C467.1 8.69995 471.3 9.29995 474.8 11.2L472 19.0999C468.2 14.5999 455.1 14.2 455.1 21.7C455.1 31.5 477.6 32.4999 477.6 47.1999C477.6 56.5999 471.3 63.6999 459.7 63.6999Z" fill="#004099"/>
<path d="M484.5 62.6V14.9L480.8 9.79999H493.5V62.6H484.5Z" fill="#004099"/>
<path d="M533.4 62.5C527.8 52.9 511.1 27.7 511.1 27.7V62.6H503.7V17L498.5 9.79999H509.7L531.7 43.2V9.79999H539.2V62.5H533.4Z" fill="#004099"/>
<path d="M574.6 62.6H548.7V12.8L546.6 9.89996H576L573.1 16.9H557.7V32.3H572.8L569.9 39.6H557.8V55H577.7L574.6 62.6Z" fill="#004099"/>
<path d="M593.7 63.6999C588.9 63.6999 583.8 62.7 580.1 60.8L582.5 52.8C587.9 58 602.9 57.9999 602.9 49.5999C602.9 38.3999 580.3 39.4999 580.3 22.5999C580.3 14.0999 586.9 8.69995 597.1 8.69995C601.1 8.69995 605.3 9.29995 608.8 11.2L606 19.0999C602.2 14.5999 589.1 14.2 589.1 21.7C589.1 31.5 611.6 32.4999 611.6 47.1999C611.5 56.5999 605.3 63.6999 593.7 63.6999Z" fill="#004099"/>
<path d="M626.5 63.6999C621.7 63.6999 616.6 62.7 612.9 60.8L615.3 52.8C620.7 58 635.7 57.9999 635.7 49.5999C635.7 38.3999 613.1 39.4999 613.1 22.5999C613.1 14.0999 619.7 8.69995 629.9 8.69995C633.9 8.69995 638.1 9.29995 641.6 11.2L638.8 19.0999C635 14.5999 621.9 14.2 621.9 21.7C621.9 31.5 644.4 32.4999 644.4 47.1999C644.3 56.5999 638.1 63.6999 626.5 63.6999Z" fill="#004099"/>
<path d="M680.8 64.1H659.6L664.3 57V8.59997L659.6 1.59998H679.8C698 1.59998 706.6 13.1 706.6 31.6C706.6 52.8 697.7 64.1 680.8 64.1ZM679.2 8.99998H674.3V56.5H680C690.3 56.5 696.3 49.4 696.3 32.5C696.3 17.3 690.9 8.99998 679.2 8.99998Z" fill="#004099"/>
<path d="M739.5 64.1L735.5 50.7H720.3L716.3 64.1H707L724.1 16.3L722.2 11.4H732.9L749.6 64.2H739.5V64.1ZM728.1 25.1L722.1 44H733.7L728.1 25.1Z" fill="#004099"/>
<path d="M755.6 64.1V16.4L751.9 11.3H764.6V64.1H755.6Z" fill="#004099"/>
<path d="M798.2 64.1H773.4V13.9L771.5 11.4H782.4V56.5H801L798.2 64.1Z" fill="#004099"/>
<path d="M818.2 42V64.1H809.2V42.1L794.9 15.6L791.7 11.3H802.7L814.5 34L824.3 15.5L821.2 11.3H834.9L818.2 42Z" fill="#004099"/>
<path d="M846.7 19.2C843.8 19.2 841.7 16.9999 841.7 14.0999C841.7 11.1999 843.8 8.99995 846.7 8.99995C849.6 8.99995 851.7 11.1999 851.7 14.0999C851.7 16.8999 849.6 19.2 846.7 19.2ZM846.7 20C850 20 852.6 17.3999 852.6 14.0999C852.6 10.8999 850 8.19995 846.7 8.19995C843.4 8.19995 840.8 10.7999 840.8 14.0999C840.8 17.2999 843.4 20 846.7 20ZM847.5 14.2999C848.7 14.2999 849.6 13.8 849.6 12.5C849.6 11.4 849 10.7999 847.3 10.7999H844.4V17.4H845.2V14.4H846.7L848.6 17.4H849.6L847.5 14.2999ZM845.2 13.7V11.4H847.1C847.9 11.4 848.8 11.4999 848.8 12.5999C848.8 13.8999 847.4 13.7999 846.5 13.7999H845.2V13.7Z" fill="#004099"/>
</svg>
