<svg xmlns="http://www.w3.org/2000/svg" xmlns:xlink="http://www.w3.org/1999/xlink" id="Layer_1" x="0px" y="0px" viewBox="0 0 891.7 124" style="enable-background:new 0 0 891.7 124;" xml:space="preserve">
<style type="text/css">
	.st0{fill:#FFFFFF;}
</style>
<g>
	<path class="st0" d="M18.8,93.1l5.2-7.3v-48l-5.2-7.3H39l-5.2,7.3v48l5.2,7.3H18.8z"></path>
	<path class="st0" d="M75.5,93c-5.6-9.6-22.3-34.8-22.3-34.8v34.9h-7.4V47.5l-5.2-7.2h11.2l22,33.4V40.3h7.5V93H75.5z"></path>
	<path class="st0" d="M109.9,93.1h-6.8L87.5,45l-3.3-4.6h11.4l11.8,37.3L117.8,45l-3.3-4.6H127L109.9,93.1z"></path>
	<path class="st0" d="M157.6,93.1h-25.9V40.3H159l-2.8,7h-15.4v15.4h15.1l-2.9,7.3h-12.1v15.5h19.9L157.6,93.1z"></path>
	<path class="st0" d="M176.6,94.2c-4.8,0-9.9-1-13.6-2.9l2.4-8c5.4,5.2,20.4,5.2,20.4-3.2c0-11.2-22.6-10.1-22.6-27   c0-8.5,6.6-13.9,16.8-13.9c4,0,8.2,0.6,11.7,2.5l-2.8,7.9c-3.8-4.5-16.9-4.9-16.9,2.6c0,9.8,22.5,10.8,22.5,25.5   C194.5,87.1,188.3,94.2,176.6,94.2z"></path>
	<path class="st0" d="M216.9,47.3v45.8h-9V47.3h-13.8l2.1-7h31.9l2.4,7H216.9z"></path>
	<path class="st0" d="M249.3,94.2c-14.8,0-19.6-16.1-19.6-28.1c0-12.1,6.1-26.8,20.2-26.8c14.8,0,19.6,16.1,19.6,28.1   C269.5,79.5,263.3,94.2,249.3,94.2z M249.3,46.6c-9.1,0-10.3,12.5-10.3,19.1c0,6.6,1.3,21.1,10.9,21.1c9.1,0,10.3-12.5,10.3-19.1   C260.2,61.1,258.8,46.6,249.3,46.6z"></path>
	<path class="st0" d="M302.5,93.1l-16-23.6v23.6h-9V45.8l-3.9-5.5h19.6c8.8,0,15.6,6,15.6,14.8c0,7.8-3.6,13.9-11.5,15.3l16.6,22.6   H302.5z M291.7,47.2h-5.2v17.2h5.5c4.3,0,8.1-3.1,8.1-8.8C300,50.8,297,47.2,291.7,47.2z"></path>
	<path class="st0" d="M313.4,56.8c1.5-2.7,2.2-5.9,2.2-8.6c-3.4-0.3-5.2-2.2-5.2-4.9c0-3.2,2.3-4.9,4.7-4.9c2.8,0,5.7,2.2,5.7,7   C320.9,49.6,318.4,54.7,313.4,56.8z"></path>
	<path class="st0" d="M338.1,94.2c-4.8,0-9.9-1-13.6-2.9l2.4-8c5.4,5.2,20.4,5.2,20.4-3.2c0-11.2-22.6-10.1-22.6-27   c0-8.5,6.6-13.9,16.8-13.9c4,0,8.2,0.6,11.7,2.5l-2.8,7.9c-3.8-4.5-16.9-4.9-16.9,2.6c0,9.8,22.5,10.8,22.5,25.5   C355.9,87.1,349.7,94.2,338.1,94.2z"></path>
	<path class="st0" d="M395.7,92.6h-21.1l4.9-6.8V36.9l-4.9-6.8h21.5c12.7,0,18.4,7.4,18.4,15.4c0,7.9-4,12.7-8.9,14.2   c6.1,1.4,11.4,7.5,11.4,15C417,85.9,410.1,92.6,395.7,92.6z M395.9,37.3h-6.8v19.4h5.6c6.4,0,10.3-4.2,10.3-10.7   C405,41.5,402.1,37.3,395.9,37.3z M397.4,64.3h-8.3V85h7.5c7,0,10.9-4.3,10.9-10.1C407.4,68.8,403.5,64.3,397.4,64.3z"></path>
	<path class="st0" d="M441.3,93.4c-11.2,0-17.7-7-17.7-20.5V44.5l-3.3-4.7h12.3v33c0,8.5,3.1,12.9,9.1,12.9s9.3-4.5,9.3-12.5V45.5   l-4-5.7H459v33.7C459,85.5,453.1,93.4,441.3,93.4z"></path>
	<path class="st0" d="M477.7,93.7c-4.8,0-9.9-1-13.6-2.9l2.4-8c5.4,5.2,20.4,5.2,20.4-3.2c0-11.2-22.6-10.1-22.6-27   c0-8.5,6.6-13.9,16.8-13.9c4,0,8.2,0.6,11.7,2.5l-2.8,7.9c-3.8-4.5-16.9-4.9-16.9,2.6c0,9.8,22.5,10.8,22.5,25.5   C495.6,86.6,489.3,93.7,477.7,93.7z"></path>
	<path class="st0" d="M502.5,92.6V44.9l-3.7-5.1h12.7v52.8H502.5z"></path>
	<path class="st0" d="M551.4,92.5c-5.6-9.6-22.3-34.8-22.3-34.8v34.9h-7.4V47l-5.2-7.2h11.2l22,33.4V39.8h7.5v52.7H551.4z"></path>
	<path class="st0" d="M592.6,92.6h-25.9V42.8l-2.1-2.9H594l-2.9,7h-15.4v15.4h15.1l-2.9,7.3h-12.1V85h19.9L592.6,92.6z"></path>
	<path class="st0" d="M611.7,93.7c-4.8,0-9.9-1-13.6-2.9l2.4-8c5.4,5.2,20.4,5.2,20.4-3.2c0-11.2-22.6-10.1-22.6-27   c0-8.5,6.6-13.9,16.8-13.9c4,0,8.2,0.6,11.7,2.5l-2.8,7.9c-3.8-4.5-16.9-4.9-16.9,2.6c0,9.8,22.5,10.8,22.5,25.5   C629.5,86.6,623.3,93.7,611.7,93.7z"></path>
	<path class="st0" d="M644.5,93.7c-4.8,0-9.9-1-13.6-2.9l2.4-8c5.4,5.2,20.4,5.2,20.4-3.2c0-11.2-22.6-10.1-22.6-27   c0-8.5,6.6-13.9,16.8-13.9c4,0,8.2,0.6,11.7,2.5l-2.8,7.9c-3.8-4.5-16.9-4.9-16.9,2.6c0,9.8,22.5,10.8,22.5,25.5   C662.3,86.6,656.1,93.7,644.5,93.7z"></path>
	<path class="st0" d="M698.8,94.1h-21.2l4.7-7.1V38.6l-4.7-7h20.2c18.2,0,26.8,11.5,26.8,30C724.6,82.8,715.7,94.1,698.8,94.1z    M697.2,39h-4.9v47.5h5.7c10.3,0,16.3-7.1,16.3-24C714.3,47.3,708.9,39,697.2,39z"></path>
	<path class="st0" d="M757.5,94.1l-4-13.4h-15.2l-4,13.4h-9.3l17.1-47.8l-1.9-4.9h10.7l16.7,52.8H757.5z M746.1,55.1L740.1,74h11.6   L746.1,55.1z"></path>
	<path class="st0" d="M773.6,94.1V46.4l-3.7-5.1h12.7v52.8H773.6z"></path>
	<path class="st0" d="M816.2,94.1h-24.8V43.9l-1.9-2.5h10.9v45.1h18.6L816.2,94.1z"></path>
	<path class="st0" d="M836.2,72v22.1h-9v-22l-14.3-26.5l-3.2-4.3h11l11.8,22.7l9.8-18.5l-3.1-4.2h13.7L836.2,72z"></path>
	<path class="st0" d="M864.7,49.2c-2.9,0-5-2.2-5-5.1c0-2.9,2.1-5.1,5-5.1c2.9,0,5,2.2,5,5.1C869.7,46.9,867.6,49.2,864.7,49.2z    M864.7,50c3.3,0,5.9-2.6,5.9-5.9c0-3.2-2.6-5.9-5.9-5.9c-3.3,0-5.9,2.6-5.9,5.9C858.8,47.3,861.4,50,864.7,50z M865.5,44.3   c1.2,0,2.1-0.5,2.1-1.8c0-1.1-0.6-1.7-2.3-1.7h-2.9v6.6h0.8v-3h1.5l1.9,3h1L865.5,44.3z M863.2,43.7v-2.3h1.9   c0.8,0,1.7,0.1,1.7,1.2c0,1.3-1.4,1.2-2.3,1.2H863.2z"></path>
</g>
</svg>